<svg width="1920" height="1080" viewBox="0 0 1920 1080" fill="none" xmlns="http://www.w3.org/2000/svg">
<rect width="1920" height="1080" fill="#253A4B"/>
<path fill-rule="evenodd" clip-rule="evenodd" d="M0 874.235V534.744C263.34 691.319 726.725 795.23 1254.4 795.23C1493.71 795.23 1719.8 773.858 1920 735.893V762.974C1647.66 883.543 1242.33 960 789.7 960C499.493 960 228.732 928.57 0 874.235Z" fill="#27ECD4"/>
<path fill-rule="evenodd" clip-rule="evenodd" d="M1920 741.887V409.111C1656.66 565.686 1193.28 669.597 665.6 669.597C426.29 669.597 200.204 648.225 0.00280762 610.26V626.302C272.372 748.501 680.485 826.154 1136.64 826.154C1424.17 826.154 1692.61 795.301 1920 741.887Z" fill="#27ECD4" fill-opacity="0.4"/>
<path fill-rule="evenodd" clip-rule="evenodd" d="M1920 694.604V326C1656.66 499.431 1193.28 614.53 665.6 614.53C426.29 614.53 200.204 590.857 0.00280762 548.805V566.575C272.372 701.93 680.485 787.943 1136.64 787.943C1424.17 787.943 1692.61 753.769 1920 694.604Z" fill="#27ECD4" fill-opacity="0.15"/>
</svg>
